{"accessors":[{"bufferView":0,"componentType":5123,"count":14046,"max":[2959],"min":[0],"type":"SCALAR"},{"bufferView":1,"componentType":5126,"count":2960,"max":[0.7505553364753723,2.130000114440918,0.6500000357627869],"min":[-0.7505553960800171,0.0,-0.6499999761581421],"type":"VEC3"},{"bufferView":2,"componentType":5126,"count":2960,"max":[1.0,1.0,1.0],"min":[-1.0,-1.0,-1.0],"type":"VEC3"},{"bufferView":3,"componentType":5126,"count":2960,"max":[1.0,0.999865710735321,0.9995749592781067,1.0],"min":[-1.0,-0.9998794198036194,-0.894879162311554,1.0],"type":"VEC4"},{"bufferView":4,"componentType":5126,"count":2960,"max":[0.9702398777008057,0.9948988500982523],"min":[0.010022714734077454,0.008554518222808838],"type":"VEC2"}],"asset":{"generator":"Khronos Blender glTF 2.0 exporter","version":"2.0"},"bufferViews":[{"buffer":0,"byteLength":28092,"byteOffset":0,"target":34963},{"buffer":0,"byteLength":35520,"byteOffset":28092,"target":34962},{"buffer":0,"byteLength":35520,"byteOffset":63612,"target":34962},{"buffer":0,"byteLength":47360,"byteOffset":99132,"target":34962},{"buffer":0,"byteLength":23680,"byteOffset":146492,"target":34962}],"buffers":[{"byteLength":170172,"uri":"data:application/octet-stream;base64,"}],"materials":[{"name":"Material","pbrMetallicRoughness":{"baseColorFactor":[0.35155850648880005,0.35155850648880005,0.35155850648880005,1.0],"roughnessFactor":0.08181816339492798}}],"meshes":[{"name":"Bolt.003","primitives":[{"attributes":{"NORMAL":2,"POSITION":1,"TANGENT":3,"TEXCOORD_0":4},"indices":0,"material":0}]}],"nodes":[{"mesh":0,"name":"Bolt.003","rotation":[1.0,0.0,-0.0,-1.6292068494294654e-07],"translation":[0.0,0.9030433297157288,-0.0]}],"scene":0,"scenes":[{"name":"Scene","nodes":[0]}]}
